<svg height="512pt" viewBox="0 0 512.01899 512" width="512pt" xmlns="http://www.w3.org/2000/svg"><path d="m202.675781 458.320312h-42.667969c-5.886718 0-10.664062 4.78125-10.664062 10.667969v21.332031c0 12.160157 9.171875 21.335938 21.332031 21.335938h21.332031c12.160157 0 21.335938-9.175781 21.335938-21.335938v-21.332031c0-5.886719-4.78125-10.667969-10.667969-10.667969zm0 0" fill="#455a64"/><path d="m352.007812 458.320312h-42.664062c-5.890625 0-10.667969 4.78125-10.667969 10.667969v21.332031c0 12.160157 9.171875 21.335938 21.332031 21.335938h21.335938c12.160156 0 21.332031-9.175781 21.332031-21.335938v-21.332031c0-5.886719-4.777343-10.667969-10.667969-10.667969zm0 0" fill="#455a64"/><path d="m359.390625 365.285156c-2.003906-1.898437-4.628906-2.964844-7.382813-2.964844h-192c-2.75 0-5.375 1.066407-7.378906 2.964844-16.34375 15.640625-24.621094 36.160156-24.621094 61.035156 0 25.75 17.132813 42.882813 24.449219 50.21875 2.003907 1.984376 4.714844 3.117188 7.550781 3.117188h39.445313c5.503906 2.386719 26.796875 10.664062 56.554687 10.664062 28.160157 0 48.769532-7.699218 55.640626-10.664062h40.359374c2.839844 0 5.546876-1.132812 7.554688-3.117188 7.316406-7.335937 24.445312-24.46875 24.445312-50.21875 0-24.875-8.277343-45.394531-24.617187-61.035156zm0 0" fill="#ffc107"/><path d="m96.007812 244.988281h320v74.667969h-320zm0 0" fill="#cfd8dc"/><path d="m96.007812 319.65625h320v53.332031h-320zm0 0" fill="#b0bec5"/><path d="m508.894531 237.4375-227.136719-227.117188c-13.738281-13.714843-37.714843-13.757812-51.476562 0l-227.15625 227.117188c-3.0507812 3.050781-3.96875 7.636719-2.304688 11.625 1.640626 3.988281 5.546876 6.59375 9.855469 6.59375h10.667969v245.332031c0 5.886719 4.777344 10.667969 10.664062 10.667969h64c5.890626 0 10.667969-4.78125 10.667969-10.667969v-245.332031h298.667969v245.332031c0 5.886719 4.777344 10.667969 10.664062 10.667969h64c5.890626 0 10.667969-4.78125 10.667969-10.667969v-245.332031h10.667969c4.308594 0 8.210938-2.605469 9.855469-6.59375 1.664062-3.988281.746093-8.554688-2.304688-11.625zm0 0" fill="#455a64"/><path d="m416.007812 383.65625h-320c-5.886718 0-10.664062-4.78125-10.664062-10.667969s4.777344-10.667969 10.664062-10.667969h320c5.890626 0 10.667969 4.78125 10.667969 10.667969s-4.777343 10.667969-10.667969 10.667969zm0 0"/><path d="m416.007812 319.65625h-320c-5.886718 0-10.664062-4.78125-10.664062-10.667969s4.777344-10.667969 10.664062-10.667969h320c5.890626 0 10.667969 4.78125 10.667969 10.667969s-4.777343 10.667969-10.667969 10.667969zm0 0"/><path d="m480.007812 511.65625h-64c-5.886718 0-10.664062-4.78125-10.664062-10.667969v-245.332031h-298.667969v245.332031c0 5.886719-4.777343 10.667969-10.667969 10.667969h-64c-5.886718 0-10.664062-4.78125-10.664062-10.667969v-245.332031h-10.667969c-4.308593 0-8.214843-2.605469-9.855469-6.59375-1.664062-3.988281-.7460932-8.574219 2.304688-11.625l227.136719-227.117188c13.78125-13.757812 37.757812-13.738281 51.476562 0l227.136719 227.136719c3.050781 3.050781 3.964844 7.636719 2.300781 11.628907-1.621093 3.964843-5.523437 6.570312-9.832031 6.570312h-10.667969v245.332031c0 5.886719-4.777343 10.667969-10.667969 10.667969zm-53.332031-21.335938h42.667969v-245.332031c0-4.566406 2.878906-8.46875 6.933594-9.984375l-209.601563-209.601562c-5.652343-5.652344-15.660156-5.609375-21.3125 0l-209.597656 209.601562c4.03125 1.515625 6.910156 5.417969 6.910156 9.984375v245.332031h42.667969v-245.332031c0-5.886719 4.777344-10.667969 10.664062-10.667969h320c5.890626 0 10.667969 4.78125 10.667969 10.667969zm0 0"/><path d="m277.34375 426.320312h-42.667969c-5.886719 0-10.667969-4.777343-10.667969-10.664062 0-5.890625 4.78125-10.667969 10.667969-10.667969h42.667969c5.886719 0 10.664062 4.777344 10.664062 10.667969 0 5.886719-4.777343 10.664062-10.664062 10.664062zm0 0"/><path d="m192.007812 436.988281c-5.886718 0-10.664062-4.777343-10.664062-10.667969 0-5.480468-17.6875-10.429687-32.171875-10.664062-5.886719-.085938-10.601563-4.949219-10.496094-10.839844.105469-5.886718 4.375-10.367187 10.835938-10.496094 5.441406.085938 53.164062 1.707032 53.164062 32 0 5.890626-4.777343 10.667969-10.667969 10.667969zm0 0"/><path d="m341.34375 511.65625h-21.335938c-11.964843 0-21.332031-9.367188-21.332031-21.335938v-6.058593c-10.195312 3.007812-24.917969 6.058593-42.667969 6.058593-17.746093 0-32.46875-3.050781-42.664062-6.058593v6.058593c0 11.96875-9.367188 21.335938-21.335938 21.335938h-21.332031c-11.96875 0-21.332031-9.367188-21.332031-21.335938v-16.957031c-8.171875-8.535156-21.335938-24.472656-21.335938-47.042969 0-24.339843 8.492188-45.417968 24.578126-60.992187 4.222656-4.074219 11.007812-3.988281 15.082031.257813 4.097656 4.222656 3.988281 10.984374-.253907 15.082031-11.992187 11.605469-18.070312 26.988281-18.070312 45.652343 0 14.914063 9.214844 26.132813 18.21875 35.117188 1.984375 2.003906 3.113281 4.714844 3.113281 7.550781v21.332031h21.332031v-21.332031c0-3.691406 1.921876-7.105469 5.035157-9.046875 3.136719-1.960937 7.082031-2.152344 10.371093-.511718.191407.109374 19.773438 9.558593 48.59375 9.558593 29.144532 0 48.386719-9.449219 48.554688-9.535156 3.285156-1.644531 7.210938-1.496094 10.371094.46875 3.15625 1.941406 5.074218 5.375 5.074218 9.066406v21.332031h21.335938v-21.332031c0-2.835937 1.128906-5.546875 3.113281-7.550781 9.003907-8.984375 18.21875-20.203125 18.21875-35.117188 0-18.664062-6.078125-34.046874-18.089843-45.671874-4.246094-4.097657-4.351563-10.859376-.257813-15.085938 4.117187-4.242188 10.859375-4.328125 15.085937-.253906 16.105469 15.59375 24.59375 36.671875 24.59375 61.011718 0 22.570313-13.160156 38.507813-21.332031 47.042969v16.957031c0 11.96875-9.363281 21.335938-21.332031 21.335938zm0 0"/><path d="m320.007812 436.988281c-5.886718 0-10.664062-4.777343-10.664062-10.667969 0-30.292968 47.722656-31.914062 53.160156-32 5.464844-.148437 10.710938 4.609376 10.816406 10.496094.109376 5.890625-4.585937 10.730469-10.472656 10.839844-14.570312.253906-32.171875 5.074219-32.171875 10.664062 0 5.890626-4.777343 10.667969-10.667969 10.667969zm0 0"/><path d="m202.675781 479.65625h-42.667969c-5.886718 0-10.664062-4.78125-10.664062-10.667969s4.777344-10.667969 10.664062-10.667969h42.667969c5.886719 0 10.667969 4.78125 10.667969 10.667969s-4.78125 10.667969-10.667969 10.667969zm0 0"/><path d="m352.007812 479.65625h-42.664062c-5.890625 0-10.667969-4.78125-10.667969-10.667969s4.777344-10.667969 10.667969-10.667969h42.664062c5.890626 0 10.667969 4.78125 10.667969 10.667969s-4.777343 10.667969-10.667969 10.667969zm0 0"/></svg>