<svg height="512pt" viewBox="0 0 512.01899 512" width="512pt" xmlns="http://www.w3.org/2000/svg"><path d="m96.007812 372.980469h320v74.667969h-320zm0 0" fill="#cfd8dc"/><path d="m96.007812 447.648438h320v64h-320zm0 0" fill="#b0bec5"/><path d="m96.007812 244.980469h320v74.667969h-320zm0 0" fill="#cfd8dc"/><path d="m96.007812 319.648438h320v53.332031h-320zm0 0" fill="#b0bec5"/><path d="m508.894531 237.429688-227.136719-227.117188c-13.738281-13.714844-37.714843-13.757812-51.476562 0l-227.15625 227.117188c-3.0507812 3.050781-3.96875 7.636718-2.304688 11.625 1.640626 3.988281 5.546876 6.59375 9.855469 6.59375h32v245.332031c0 5.886719 4.777344 10.667969 10.667969 10.667969h64c5.886719 0 10.664062-4.78125 10.664062-10.667969v-245.332031h256v245.332031c0 5.886719 4.78125 10.667969 10.667969 10.667969h64c5.886719 0 10.667969-4.78125 10.667969-10.667969v-245.332031h32c4.308594 0 8.210938-2.605469 9.855469-6.59375 1.664062-3.988282.746093-8.554688-2.304688-11.625zm0 0" fill="#455a64"/><path d="m394.675781 511.648438c-5.886719 0-10.667969-4.78125-10.667969-10.667969v-245.332031h-256v245.332031c0 5.886719-4.777343 10.667969-10.664062 10.667969-5.890625 0-10.667969-4.78125-10.667969-10.667969v-256c0-5.886719 4.777344-10.667969 10.667969-10.667969h277.332031c5.886719 0 10.667969 4.78125 10.667969 10.667969v256c0 5.886719-4.78125 10.667969-10.667969 10.667969zm0 0"/><path d="m394.675781 447.648438h-277.332031c-5.890625 0-10.667969-4.78125-10.667969-10.667969s4.777344-10.667969 10.667969-10.667969h277.332031c5.886719 0 10.667969 4.78125 10.667969 10.667969s-4.78125 10.667969-10.667969 10.667969zm0 0"/><path d="m394.675781 383.648438h-277.332031c-5.890625 0-10.667969-4.78125-10.667969-10.667969s4.777344-10.667969 10.667969-10.667969h277.332031c5.886719 0 10.667969 4.78125 10.667969 10.667969s-4.78125 10.667969-10.667969 10.667969zm0 0"/><path d="m394.675781 319.648438h-277.332031c-5.890625 0-10.667969-4.78125-10.667969-10.667969s4.777344-10.667969 10.667969-10.667969h277.332031c5.886719 0 10.667969 4.78125 10.667969 10.667969s-4.78125 10.667969-10.667969 10.667969zm0 0"/><path d="m458.675781 511.648438h-405.332031c-5.890625 0-10.667969-4.78125-10.667969-10.667969v-245.332031h-32c-4.308593 0-8.214843-2.605469-9.855469-6.59375-1.644531-3.988282-.726562-8.574219 2.304688-11.625l227.15625-227.136719c13.652344-13.675781 37.84375-13.652344 51.457031 0l227.136719 227.136719c3.050781 3.050781 3.964844 7.636718 2.300781 11.625-1.664062 3.988281-5.523437 6.59375-9.832031 6.59375h-32v245.332031c0 5.886719-4.78125 10.667969-10.667969 10.667969zm-394.667969-21.335938h384v-245.332031c0-5.886719 4.78125-10.667969 10.667969-10.667969h16.917969l-208.9375-208.9375c-5.632812-5.652344-15.660156-5.609375-21.292969 0l-208.9375 208.9375h16.917969c5.886719 0 10.664062 4.78125 10.664062 10.667969zm0 0"/></svg>